<?xml version="1.0" encoding="UTF-8" standalone="no"?>
<!DOCTYPE svg PUBLIC "-//W3C//DTD SVG 1.1//EN"
 "http://www.w3.org/Graphics/SVG/1.1/DTD/svg11.dtd">
<!-- Generated by graphviz version 12.1.2 (20240928.0832)
 -->
<!-- Pages: 1 -->
<svg width="1654pt" height="210pt"
 viewBox="0.00 0.00 1654.25 210.00" xmlns="http://www.w3.org/2000/svg" xmlns:xlink="http://www.w3.org/1999/xlink">
<g id="graph0" class="graph" transform="scale(1 1) rotate(0) translate(4 206)">
<polygon fill="white" stroke="none" points="-4,4 -4,-206 1650.25,-206 1650.25,4 -4,4"/>
<!-- 4591604736 -->
<g id="node1" class="node">
<title>4591604736</title>
<polygon fill="none" stroke="black" points="708.75,-82.5 708.75,-118.5 986.25,-118.5 986.25,-82.5 708.75,-82.5"/>
<text text-anchor="middle" x="754.62" y="-95.7" font-family="Times,serif" font-size="14.00">x1w1 + x2w2</text>
<polyline fill="none" stroke="black" points="800.5,-83 800.5,-118.5"/>
<text text-anchor="middle" x="842.62" y="-95.7" font-family="Times,serif" font-size="14.00">data &#45;6.0000</text>
<polyline fill="none" stroke="black" points="884.75,-83 884.75,-118.5"/>
<text text-anchor="middle" x="935.5" y="-95.7" font-family="Times,serif" font-size="14.00">gradient 0.0000</text>
</g>
<!-- 4591604848+ -->
<g id="node5" class="node">
<title>4591604848+</title>
<ellipse fill="none" stroke="black" cx="1049.25" cy="-127.5" rx="27" ry="18"/>
<text text-anchor="middle" x="1049.25" y="-122.45" font-family="Times,serif" font-size="14.00">+</text>
</g>
<!-- 4591604736&#45;&gt;4591604848+ -->
<g id="edge10" class="edge">
<title>4591604736&#45;&gt;4591604848+</title>
<path fill="none" stroke="black" d="M985.32,-118.99C994.58,-120.25 1003.34,-121.43 1011.23,-122.5"/>
<polygon fill="black" stroke="black" points="1010.59,-125.94 1020.96,-123.81 1011.52,-119 1010.59,-125.94"/>
</g>
<!-- 4591604736+ -->
<g id="node2" class="node">
<title>4591604736+</title>
<ellipse fill="none" stroke="black" cx="645.75" cy="-100.5" rx="27" ry="18"/>
<text text-anchor="middle" x="645.75" y="-95.45" font-family="Times,serif" font-size="14.00">+</text>
</g>
<!-- 4591604736+&#45;&gt;4591604736 -->
<g id="edge1" class="edge">
<title>4591604736+&#45;&gt;4591604736</title>
<path fill="none" stroke="black" d="M672.86,-100.5C680.01,-100.5 688.29,-100.5 697.28,-100.5"/>
<polygon fill="black" stroke="black" points="697.06,-104 707.06,-100.5 697.06,-97 697.06,-104"/>
</g>
<!-- 4591603728 -->
<g id="node3" class="node">
<title>4591603728</title>
<polygon fill="none" stroke="black" points="0,-55.5 0,-91.5 218.25,-91.5 218.25,-55.5 0,-55.5"/>
<text text-anchor="middle" x="16.25" y="-68.7" font-family="Times,serif" font-size="14.00">w1</text>
<polyline fill="none" stroke="black" points="32.5,-56 32.5,-91.5"/>
<text text-anchor="middle" x="74.62" y="-68.7" font-family="Times,serif" font-size="14.00">data &#45;3.0000</text>
<polyline fill="none" stroke="black" points="116.75,-56 116.75,-91.5"/>
<text text-anchor="middle" x="167.5" y="-68.7" font-family="Times,serif" font-size="14.00">gradient 0.0000</text>
</g>
<!-- 4591602608* -->
<g id="node14" class="node">
<title>4591602608*</title>
<ellipse fill="none" stroke="black" cx="281.25" cy="-73.5" rx="27" ry="18"/>
<text text-anchor="middle" x="281.25" y="-68.45" font-family="Times,serif" font-size="14.00">*</text>
</g>
<!-- 4591603728&#45;&gt;4591602608* -->
<g id="edge13" class="edge">
<title>4591603728&#45;&gt;4591602608*</title>
<path fill="none" stroke="black" d="M218.35,-73.5C226.85,-73.5 235.01,-73.5 242.47,-73.5"/>
<polygon fill="black" stroke="black" points="242.39,-77 252.39,-73.5 242.39,-70 242.39,-77"/>
</g>
<!-- 4591604848 -->
<g id="node4" class="node">
<title>4591604848</title>
<polygon fill="none" stroke="black" points="1112.25,-109.5 1112.25,-145.5 1316.25,-145.5 1316.25,-109.5 1112.25,-109.5"/>
<text text-anchor="middle" x="1123.62" y="-122.7" font-family="Times,serif" font-size="14.00">n</text>
<polyline fill="none" stroke="black" points="1135,-110 1135,-145.5"/>
<text text-anchor="middle" x="1174.88" y="-122.7" font-family="Times,serif" font-size="14.00">data 0.8814</text>
<polyline fill="none" stroke="black" points="1214.75,-110 1214.75,-145.5"/>
<text text-anchor="middle" x="1265.5" y="-122.7" font-family="Times,serif" font-size="14.00">gradient 0.0000</text>
</g>
<!-- 4591604960tanh -->
<g id="node8" class="node">
<title>4591604960tanh</title>
<ellipse fill="none" stroke="black" cx="1379.25" cy="-127.5" rx="27" ry="18"/>
<text text-anchor="middle" x="1379.25" y="-122.45" font-family="Times,serif" font-size="14.00">tanh</text>
</g>
<!-- 4591604848&#45;&gt;4591604960tanh -->
<g id="edge8" class="edge">
<title>4591604848&#45;&gt;4591604960tanh</title>
<path fill="none" stroke="black" d="M1316.63,-127.5C1325.02,-127.5 1333.12,-127.5 1340.53,-127.5"/>
<polygon fill="black" stroke="black" points="1340.4,-131 1350.4,-127.5 1340.4,-124 1340.4,-131"/>
</g>
<!-- 4591604848+&#45;&gt;4591604848 -->
<g id="edge2" class="edge">
<title>4591604848+&#45;&gt;4591604848</title>
<path fill="none" stroke="black" d="M1076.44,-127.5C1083.59,-127.5 1091.81,-127.5 1100.61,-127.5"/>
<polygon fill="black" stroke="black" points="1100.5,-131 1110.5,-127.5 1100.5,-124 1100.5,-131"/>
</g>
<!-- 4591602832 -->
<g id="node6" class="node">
<title>4591602832</title>
<polygon fill="none" stroke="black" points="3.75,-165.5 3.75,-201.5 214.5,-201.5 214.5,-165.5 3.75,-165.5"/>
<text text-anchor="middle" x="18.5" y="-178.7" font-family="Times,serif" font-size="14.00">x2</text>
<polyline fill="none" stroke="black" points="33.25,-166 33.25,-201.5"/>
<text text-anchor="middle" x="73.12" y="-178.7" font-family="Times,serif" font-size="14.00">data 0.0000</text>
<polyline fill="none" stroke="black" points="113,-166 113,-201.5"/>
<text text-anchor="middle" x="163.75" y="-178.7" font-family="Times,serif" font-size="14.00">gradient 0.0000</text>
</g>
<!-- 4591604624* -->
<g id="node12" class="node">
<title>4591604624*</title>
<ellipse fill="none" stroke="black" cx="281.25" cy="-128.5" rx="27" ry="18"/>
<text text-anchor="middle" x="281.25" y="-123.45" font-family="Times,serif" font-size="14.00">*</text>
</g>
<!-- 4591602832&#45;&gt;4591604624* -->
<g id="edge14" class="edge">
<title>4591602832&#45;&gt;4591604624*</title>
<path fill="none" stroke="black" d="M190.9,-165.03C200.19,-162.4 209.48,-159.55 218.25,-156.5 228.38,-152.98 239.13,-148.43 248.78,-144.03"/>
<polygon fill="black" stroke="black" points="250.18,-147.24 257.74,-139.83 247.2,-140.9 250.18,-147.24"/>
</g>
<!-- 4591604960 -->
<g id="node7" class="node">
<title>4591604960</title>
<polygon fill="none" stroke="black" points="1442.25,-109.5 1442.25,-145.5 1646.25,-145.5 1646.25,-109.5 1442.25,-109.5"/>
<text text-anchor="middle" x="1453.62" y="-122.7" font-family="Times,serif" font-size="14.00">o</text>
<polyline fill="none" stroke="black" points="1465,-110 1465,-145.5"/>
<text text-anchor="middle" x="1504.88" y="-122.7" font-family="Times,serif" font-size="14.00">data 0.7071</text>
<polyline fill="none" stroke="black" points="1544.75,-110 1544.75,-145.5"/>
<text text-anchor="middle" x="1595.5" y="-122.7" font-family="Times,serif" font-size="14.00">gradient 0.0000</text>
</g>
<!-- 4591604960tanh&#45;&gt;4591604960 -->
<g id="edge3" class="edge">
<title>4591604960tanh&#45;&gt;4591604960</title>
<path fill="none" stroke="black" d="M1406.44,-127.5C1413.59,-127.5 1421.81,-127.5 1430.61,-127.5"/>
<polygon fill="black" stroke="black" points="1430.5,-131 1440.5,-127.5 1430.5,-124 1430.5,-131"/>
</g>
<!-- 4591603952 -->
<g id="node9" class="node">
<title>4591603952</title>
<polygon fill="none" stroke="black" points="3.75,-0.5 3.75,-36.5 214.5,-36.5 214.5,-0.5 3.75,-0.5"/>
<text text-anchor="middle" x="18.5" y="-13.7" font-family="Times,serif" font-size="14.00">x1</text>
<polyline fill="none" stroke="black" points="33.25,-1 33.25,-36.5"/>
<text text-anchor="middle" x="73.12" y="-13.7" font-family="Times,serif" font-size="14.00">data 2.0000</text>
<polyline fill="none" stroke="black" points="113,-1 113,-36.5"/>
<text text-anchor="middle" x="163.75" y="-13.7" font-family="Times,serif" font-size="14.00">gradient 0.0000</text>
</g>
<!-- 4591603952&#45;&gt;4591602608* -->
<g id="edge7" class="edge">
<title>4591603952&#45;&gt;4591602608*</title>
<path fill="none" stroke="black" d="M187.65,-36.99C198.01,-39.93 208.44,-43.12 218.25,-46.5 228.25,-49.95 238.89,-54.31 248.48,-58.52"/>
<polygon fill="black" stroke="black" points="246.84,-61.62 257.39,-62.53 249.71,-55.24 246.84,-61.62"/>
</g>
<!-- 4591604064 -->
<g id="node10" class="node">
<title>4591604064</title>
<polygon fill="none" stroke="black" points="2.25,-110.5 2.25,-146.5 216,-146.5 216,-110.5 2.25,-110.5"/>
<text text-anchor="middle" x="18.5" y="-123.7" font-family="Times,serif" font-size="14.00">w2</text>
<polyline fill="none" stroke="black" points="34.75,-111 34.75,-146.5"/>
<text text-anchor="middle" x="74.62" y="-123.7" font-family="Times,serif" font-size="14.00">data 1.0000</text>
<polyline fill="none" stroke="black" points="114.5,-111 114.5,-146.5"/>
<text text-anchor="middle" x="165.25" y="-123.7" font-family="Times,serif" font-size="14.00">gradient 0.0000</text>
</g>
<!-- 4591604064&#45;&gt;4591604624* -->
<g id="edge6" class="edge">
<title>4591604064&#45;&gt;4591604624*</title>
<path fill="none" stroke="black" d="M216.42,-128.5C225.61,-128.5 234.44,-128.5 242.46,-128.5"/>
<polygon fill="black" stroke="black" points="242.42,-132 252.42,-128.5 242.42,-125 242.42,-132"/>
</g>
<!-- 4591604624 -->
<g id="node11" class="node">
<title>4591604624</title>
<polygon fill="none" stroke="black" points="346.5,-110.5 346.5,-146.5 580.5,-146.5 580.5,-110.5 346.5,-110.5"/>
<text text-anchor="middle" x="372.88" y="-123.7" font-family="Times,serif" font-size="14.00">x2*w2</text>
<polyline fill="none" stroke="black" points="399.25,-111 399.25,-146.5"/>
<text text-anchor="middle" x="439.12" y="-123.7" font-family="Times,serif" font-size="14.00">data 0.0000</text>
<polyline fill="none" stroke="black" points="479,-111 479,-146.5"/>
<text text-anchor="middle" x="529.75" y="-123.7" font-family="Times,serif" font-size="14.00">gradient 0.0000</text>
</g>
<!-- 4591604624&#45;&gt;4591604736+ -->
<g id="edge11" class="edge">
<title>4591604624&#45;&gt;4591604736+</title>
<path fill="none" stroke="black" d="M580.95,-110.41C590.44,-108.94 599.5,-107.53 607.66,-106.26"/>
<polygon fill="black" stroke="black" points="608.08,-109.74 617.42,-104.74 607,-102.82 608.08,-109.74"/>
</g>
<!-- 4591604624*&#45;&gt;4591604624 -->
<g id="edge4" class="edge">
<title>4591604624*&#45;&gt;4591604624</title>
<path fill="none" stroke="black" d="M308.46,-128.5C316.19,-128.5 325.22,-128.5 334.95,-128.5"/>
<polygon fill="black" stroke="black" points="334.7,-132 344.7,-128.5 334.7,-125 334.7,-132"/>
</g>
<!-- 4591602608 -->
<g id="node13" class="node">
<title>4591602608</title>
<polygon fill="none" stroke="black" points="344.25,-55.5 344.25,-91.5 582.75,-91.5 582.75,-55.5 344.25,-55.5"/>
<text text-anchor="middle" x="370.62" y="-68.7" font-family="Times,serif" font-size="14.00">x1*w1</text>
<polyline fill="none" stroke="black" points="397,-56 397,-91.5"/>
<text text-anchor="middle" x="439.12" y="-68.7" font-family="Times,serif" font-size="14.00">data &#45;6.0000</text>
<polyline fill="none" stroke="black" points="481.25,-56 481.25,-91.5"/>
<text text-anchor="middle" x="532" y="-68.7" font-family="Times,serif" font-size="14.00">gradient 0.0000</text>
</g>
<!-- 4591602608&#45;&gt;4591604736+ -->
<g id="edge9" class="edge">
<title>4591602608&#45;&gt;4591604736+</title>
<path fill="none" stroke="black" d="M583.22,-91.28C591.96,-92.59 600.3,-93.84 607.86,-94.97"/>
<polygon fill="black" stroke="black" points="607.13,-98.4 617.54,-96.42 608.17,-91.48 607.13,-98.4"/>
</g>
<!-- 4591602608*&#45;&gt;4591602608 -->
<g id="edge5" class="edge">
<title>4591602608*&#45;&gt;4591602608</title>
<path fill="none" stroke="black" d="M308.46,-73.5C315.53,-73.5 323.68,-73.5 332.47,-73.5"/>
<polygon fill="black" stroke="black" points="332.39,-77 342.39,-73.5 332.39,-70 332.39,-77"/>
</g>
<!-- 4591604176 -->
<g id="node15" class="node">
<title>4591604176</title>
<polygon fill="none" stroke="black" points="745.5,-137.5 745.5,-173.5 949.5,-173.5 949.5,-137.5 745.5,-137.5"/>
<text text-anchor="middle" x="756.88" y="-150.7" font-family="Times,serif" font-size="14.00">b</text>
<polyline fill="none" stroke="black" points="768.25,-138 768.25,-173.5"/>
<text text-anchor="middle" x="808.12" y="-150.7" font-family="Times,serif" font-size="14.00">data 6.8814</text>
<polyline fill="none" stroke="black" points="848,-138 848,-173.5"/>
<text text-anchor="middle" x="898.75" y="-150.7" font-family="Times,serif" font-size="14.00">gradient 0.0000</text>
</g>
<!-- 4591604176&#45;&gt;4591604848+ -->
<g id="edge12" class="edge">
<title>4591604176&#45;&gt;4591604848+</title>
<path fill="none" stroke="black" d="M949.84,-141.29C971.81,-138.22 993.68,-135.15 1011.21,-132.69"/>
<polygon fill="black" stroke="black" points="1011.68,-136.16 1021.1,-131.31 1010.71,-129.23 1011.68,-136.16"/>
</g>
</g>
</svg>
