<?xml version="1.0" encoding="UTF-8" standalone="no"?>
<!DOCTYPE svg PUBLIC "-//W3C//DTD SVG 1.1//EN"
 "http://www.w3.org/Graphics/SVG/1.1/DTD/svg11.dtd">
<!-- Generated by graphviz version 12.1.2 (20240928.0832)
 -->
<!-- Pages: 1 -->
<svg width="1221pt" height="156pt"
 viewBox="0.00 0.00 1220.75 156.00" xmlns="http://www.w3.org/2000/svg" xmlns:xlink="http://www.w3.org/1999/xlink">
<g id="graph0" class="graph" transform="scale(1 1) rotate(0) translate(4 152)">
<polygon fill="white" stroke="none" points="-4,4 -4,-152 1216.75,-152 1216.75,4 -4,4"/>
<!-- 4426299904 -->
<g id="node1" class="node">
<title>4426299904</title>
<polygon fill="none" stroke="black" points="1002.75,-27.5 1002.75,-63.5 1212.75,-63.5 1212.75,-27.5 1002.75,-27.5"/>
<text text-anchor="middle" x="1014.88" y="-40.7" font-family="Times,serif" font-size="14.00">L</text>
<polyline fill="none" stroke="black" points="1027,-28 1027,-63.5"/>
<text text-anchor="middle" x="1069.12" y="-40.7" font-family="Times,serif" font-size="14.00">data &#45;8.0000</text>
<polyline fill="none" stroke="black" points="1111.25,-28 1111.25,-63.5"/>
<text text-anchor="middle" x="1162" y="-40.7" font-family="Times,serif" font-size="14.00">gradient 1.0000</text>
</g>
<!-- 4426299904* -->
<g id="node2" class="node">
<title>4426299904*</title>
<ellipse fill="none" stroke="black" cx="939.75" cy="-45.5" rx="27" ry="18"/>
<text text-anchor="middle" x="939.75" y="-40.45" font-family="Times,serif" font-size="14.00">*</text>
</g>
<!-- 4426299904*&#45;&gt;4426299904 -->
<g id="edge1" class="edge">
<title>4426299904*&#45;&gt;4426299904</title>
<path fill="none" stroke="black" d="M967.05,-45.5C974.19,-45.5 982.39,-45.5 991.18,-45.5"/>
<polygon fill="black" stroke="black" points="991.06,-49 1001.06,-45.5 991.06,-42 991.06,-49"/>
</g>
<!-- 4424148560 -->
<g id="node3" class="node">
<title>4424148560</title>
<polygon fill="none" stroke="black" points="2.62,-111.5 2.62,-147.5 205.88,-147.5 205.88,-111.5 2.62,-111.5"/>
<text text-anchor="middle" x="13.62" y="-124.7" font-family="Times,serif" font-size="14.00">a</text>
<polyline fill="none" stroke="black" points="24.62,-112 24.62,-147.5"/>
<text text-anchor="middle" x="64.5" y="-124.7" font-family="Times,serif" font-size="14.00">data 2.0000</text>
<polyline fill="none" stroke="black" points="104.38,-112 104.38,-147.5"/>
<text text-anchor="middle" x="155.12" y="-124.7" font-family="Times,serif" font-size="14.00">gradient 0.0000</text>
</g>
<!-- 4424419520* -->
<g id="node5" class="node">
<title>4424419520*</title>
<ellipse fill="none" stroke="black" cx="271.5" cy="-101.5" rx="27" ry="18"/>
<text text-anchor="middle" x="271.5" y="-96.45" font-family="Times,serif" font-size="14.00">*</text>
</g>
<!-- 4424148560&#45;&gt;4424419520* -->
<g id="edge7" class="edge">
<title>4424148560&#45;&gt;4424419520*</title>
<path fill="none" stroke="black" d="M206.14,-112.41C215.82,-110.77 225.15,-109.18 233.56,-107.76"/>
<polygon fill="black" stroke="black" points="234.01,-111.23 243.28,-106.11 232.84,-104.33 234.01,-111.23"/>
</g>
<!-- 4424419520 -->
<g id="node4" class="node">
<title>4424419520</title>
<polygon fill="none" stroke="black" points="335.62,-83.5 335.62,-119.5 543.38,-119.5 543.38,-83.5 335.62,-83.5"/>
<text text-anchor="middle" x="346.62" y="-96.7" font-family="Times,serif" font-size="14.00">e</text>
<polyline fill="none" stroke="black" points="357.62,-84 357.62,-119.5"/>
<text text-anchor="middle" x="399.75" y="-96.7" font-family="Times,serif" font-size="14.00">data &#45;6.0000</text>
<polyline fill="none" stroke="black" points="441.88,-84 441.88,-119.5"/>
<text text-anchor="middle" x="492.62" y="-96.7" font-family="Times,serif" font-size="14.00">gradient 0.0000</text>
</g>
<!-- 4426456368+ -->
<g id="node7" class="node">
<title>4426456368+</title>
<ellipse fill="none" stroke="black" cx="607.5" cy="-73.5" rx="27" ry="18"/>
<text text-anchor="middle" x="607.5" y="-68.45" font-family="Times,serif" font-size="14.00">+</text>
</g>
<!-- 4424419520&#45;&gt;4426456368+ -->
<g id="edge9" class="edge">
<title>4424419520&#45;&gt;4426456368+</title>
<path fill="none" stroke="black" d="M543.74,-84.09C552.96,-82.53 561.82,-81.04 569.83,-79.69"/>
<polygon fill="black" stroke="black" points="570.13,-83.18 579.41,-78.07 568.97,-76.28 570.13,-83.18"/>
</g>
<!-- 4424419520*&#45;&gt;4424419520 -->
<g id="edge2" class="edge">
<title>4424419520*&#45;&gt;4424419520</title>
<path fill="none" stroke="black" d="M298.8,-101.5C306.21,-101.5 314.78,-101.5 323.94,-101.5"/>
<polygon fill="black" stroke="black" points="323.88,-105 333.88,-101.5 323.88,-98 323.88,-105"/>
</g>
<!-- 4426456368 -->
<g id="node6" class="node">
<title>4426456368</title>
<polygon fill="none" stroke="black" points="671.62,-55.5 671.62,-91.5 875.62,-91.5 875.62,-55.5 671.62,-55.5"/>
<text text-anchor="middle" x="683" y="-68.7" font-family="Times,serif" font-size="14.00">d</text>
<polyline fill="none" stroke="black" points="694.38,-56 694.38,-91.5"/>
<text text-anchor="middle" x="734.25" y="-68.7" font-family="Times,serif" font-size="14.00">data 4.0000</text>
<polyline fill="none" stroke="black" points="774.12,-56 774.12,-91.5"/>
<text text-anchor="middle" x="824.88" y="-68.7" font-family="Times,serif" font-size="14.00">gradient 0.0000</text>
</g>
<!-- 4426456368&#45;&gt;4426299904* -->
<g id="edge6" class="edge">
<title>4426456368&#45;&gt;4426299904*</title>
<path fill="none" stroke="black" d="M875.76,-56.25C885.07,-54.66 894.03,-53.13 902.13,-51.75"/>
<polygon fill="black" stroke="black" points="902.56,-55.23 911.83,-50.09 901.38,-48.32 902.56,-55.23"/>
</g>
<!-- 4426456368+&#45;&gt;4426456368 -->
<g id="edge3" class="edge">
<title>4426456368+&#45;&gt;4426456368</title>
<path fill="none" stroke="black" d="M634.87,-73.5C642.28,-73.5 650.83,-73.5 659.98,-73.5"/>
<polygon fill="black" stroke="black" points="659.88,-77 669.88,-73.5 659.88,-70 659.88,-77"/>
</g>
<!-- 4424148816 -->
<g id="node8" class="node">
<title>4424148816</title>
<polygon fill="none" stroke="black" points="0,-56.5 0,-92.5 208.5,-92.5 208.5,-56.5 0,-56.5"/>
<text text-anchor="middle" x="11.38" y="-69.7" font-family="Times,serif" font-size="14.00">b</text>
<polyline fill="none" stroke="black" points="22.75,-57 22.75,-92.5"/>
<text text-anchor="middle" x="64.88" y="-69.7" font-family="Times,serif" font-size="14.00">data &#45;3.0000</text>
<polyline fill="none" stroke="black" points="107,-57 107,-92.5"/>
<text text-anchor="middle" x="157.75" y="-69.7" font-family="Times,serif" font-size="14.00">gradient 0.0000</text>
</g>
<!-- 4424148816&#45;&gt;4424419520* -->
<g id="edge5" class="edge">
<title>4424148816&#45;&gt;4424419520*</title>
<path fill="none" stroke="black" d="M208.97,-91.45C217.65,-92.86 226,-94.23 233.59,-95.47"/>
<polygon fill="black" stroke="black" points="232.92,-98.91 243.36,-97.06 234.05,-92 232.92,-98.91"/>
</g>
<!-- 4426455472 -->
<g id="node9" class="node">
<title>4426455472</title>
<polygon fill="none" stroke="black" points="670.5,-0.5 670.5,-36.5 876.75,-36.5 876.75,-0.5 670.5,-0.5"/>
<text text-anchor="middle" x="680.75" y="-13.7" font-family="Times,serif" font-size="14.00">f</text>
<polyline fill="none" stroke="black" points="691,-1 691,-36.5"/>
<text text-anchor="middle" x="733.12" y="-13.7" font-family="Times,serif" font-size="14.00">data &#45;2.0000</text>
<polyline fill="none" stroke="black" points="775.25,-1 775.25,-36.5"/>
<text text-anchor="middle" x="826" y="-13.7" font-family="Times,serif" font-size="14.00">gradient 0.0000</text>
</g>
<!-- 4426455472&#45;&gt;4426299904* -->
<g id="edge8" class="edge">
<title>4426455472&#45;&gt;4426299904*</title>
<path fill="none" stroke="black" d="M877.17,-35.37C885.84,-36.8 894.19,-38.17 901.79,-39.42"/>
<polygon fill="black" stroke="black" points="901.13,-42.86 911.56,-41.03 902.26,-35.95 901.13,-42.86"/>
</g>
<!-- 4424419280 -->
<g id="node10" class="node">
<title>4424419280</title>
<polygon fill="none" stroke="black" points="334.5,-28.5 334.5,-64.5 544.5,-64.5 544.5,-28.5 334.5,-28.5"/>
<text text-anchor="middle" x="345.5" y="-41.7" font-family="Times,serif" font-size="14.00">c</text>
<polyline fill="none" stroke="black" points="356.5,-29 356.5,-64.5"/>
<text text-anchor="middle" x="399.75" y="-41.7" font-family="Times,serif" font-size="14.00">data 10.0000</text>
<polyline fill="none" stroke="black" points="443,-29 443,-64.5"/>
<text text-anchor="middle" x="493.75" y="-41.7" font-family="Times,serif" font-size="14.00">gradient 0.0000</text>
</g>
<!-- 4424419280&#45;&gt;4426456368+ -->
<g id="edge4" class="edge">
<title>4424419280&#45;&gt;4426456368+</title>
<path fill="none" stroke="black" d="M544.69,-63.45C553.41,-64.86 561.79,-66.23 569.43,-67.47"/>
<polygon fill="black" stroke="black" points="568.81,-70.92 579.24,-69.07 569.93,-64.01 568.81,-70.92"/>
</g>
</g>
</svg>
