<?xml version="1.0" encoding="UTF-8" standalone="no"?>
<!DOCTYPE svg PUBLIC "-//W3C//DTD SVG 1.1//EN"
 "http://www.w3.org/Graphics/SVG/1.1/DTD/svg11.dtd">
<!-- Generated by graphviz version 12.1.2 (20240928.0832)
 -->
<!-- Pages: 1 -->
<svg width="975pt" height="156pt"
 viewBox="0.00 0.00 974.75 156.00" xmlns="http://www.w3.org/2000/svg" xmlns:xlink="http://www.w3.org/1999/xlink">
<g id="graph0" class="graph" transform="scale(1 1) rotate(0) translate(4 152)">
<polygon fill="white" stroke="none" points="-4,4 -4,-152 970.75,-152 970.75,4 -4,4"/>
<!-- 4373872144 -->
<g id="node1" class="node">
<title>4373872144</title>
<polygon fill="none" stroke="black" points="818.25,-27.5 818.25,-63.5 966.75,-63.5 966.75,-27.5 818.25,-27.5"/>
<text text-anchor="middle" x="830.38" y="-40.7" font-family="Times,serif" font-size="14.00">L</text>
<polyline fill="none" stroke="black" points="842.5,-28 842.5,-63.5"/>
<text text-anchor="middle" x="884.62" y="-40.7" font-family="Times,serif" font-size="14.00">data &#45;8.0000</text>
<polyline fill="none" stroke="black" points="926.75,-28 926.75,-63.5"/>
<text text-anchor="middle" x="946.75" y="-40.7" font-family="Times,serif" font-size="14.00">grad</text>
</g>
<!-- 4373872144* -->
<g id="node2" class="node">
<title>4373872144*</title>
<ellipse fill="none" stroke="black" cx="755.25" cy="-45.5" rx="27" ry="18"/>
<text text-anchor="middle" x="755.25" y="-40.45" font-family="Times,serif" font-size="14.00">*</text>
</g>
<!-- 4373872144*&#45;&gt;4373872144 -->
<g id="edge1" class="edge">
<title>4373872144*&#45;&gt;4373872144</title>
<path fill="none" stroke="black" d="M782.65,-45.5C789.81,-45.5 797.97,-45.5 806.53,-45.5"/>
<polygon fill="black" stroke="black" points="806.44,-49 816.44,-45.5 806.44,-42 806.44,-49"/>
</g>
<!-- 4371720272 -->
<g id="node3" class="node">
<title>4371720272</title>
<polygon fill="none" stroke="black" points="0,-111.5 0,-147.5 147,-147.5 147,-111.5 0,-111.5"/>
<text text-anchor="middle" x="11.38" y="-124.7" font-family="Times,serif" font-size="14.00">b</text>
<polyline fill="none" stroke="black" points="22.75,-112 22.75,-147.5"/>
<text text-anchor="middle" x="64.88" y="-124.7" font-family="Times,serif" font-size="14.00">data &#45;3.0000</text>
<polyline fill="none" stroke="black" points="107,-112 107,-147.5"/>
<text text-anchor="middle" x="127" y="-124.7" font-family="Times,serif" font-size="14.00">grad</text>
</g>
<!-- 4371990720* -->
<g id="node5" class="node">
<title>4371990720*</title>
<ellipse fill="none" stroke="black" cx="210" cy="-101.5" rx="27" ry="18"/>
<text text-anchor="middle" x="210" y="-96.45" font-family="Times,serif" font-size="14.00">*</text>
</g>
<!-- 4371720272&#45;&gt;4371990720* -->
<g id="edge7" class="edge">
<title>4371720272&#45;&gt;4371990720*</title>
<path fill="none" stroke="black" d="M147.26,-114.35C156.08,-112.52 164.77,-110.71 172.72,-109.05"/>
<polygon fill="black" stroke="black" points="173.21,-112.53 182.28,-107.06 171.78,-105.67 173.21,-112.53"/>
</g>
<!-- 4371990720 -->
<g id="node4" class="node">
<title>4371990720</title>
<polygon fill="none" stroke="black" points="274.12,-83.5 274.12,-119.5 420.38,-119.5 420.38,-83.5 274.12,-83.5"/>
<text text-anchor="middle" x="285.12" y="-96.7" font-family="Times,serif" font-size="14.00">e</text>
<polyline fill="none" stroke="black" points="296.12,-84 296.12,-119.5"/>
<text text-anchor="middle" x="338.25" y="-96.7" font-family="Times,serif" font-size="14.00">data &#45;6.0000</text>
<polyline fill="none" stroke="black" points="380.38,-84 380.38,-119.5"/>
<text text-anchor="middle" x="400.38" y="-96.7" font-family="Times,serif" font-size="14.00">grad</text>
</g>
<!-- 4374027568+ -->
<g id="node7" class="node">
<title>4374027568+</title>
<ellipse fill="none" stroke="black" cx="484.5" cy="-73.5" rx="27" ry="18"/>
<text text-anchor="middle" x="484.5" y="-68.45" font-family="Times,serif" font-size="14.00">+</text>
</g>
<!-- 4371990720&#45;&gt;4374027568+ -->
<g id="edge6" class="edge">
<title>4371990720&#45;&gt;4374027568+</title>
<path fill="none" stroke="black" d="M420.63,-86.52C429.85,-84.61 438.95,-82.72 447.24,-81.01"/>
<polygon fill="black" stroke="black" points="447.79,-84.47 456.88,-79.01 446.37,-77.61 447.79,-84.47"/>
</g>
<!-- 4371990720*&#45;&gt;4371990720 -->
<g id="edge2" class="edge">
<title>4371990720*&#45;&gt;4371990720</title>
<path fill="none" stroke="black" d="M237.4,-101.5C244.86,-101.5 253.4,-101.5 262.35,-101.5"/>
<polygon fill="black" stroke="black" points="262.33,-105 272.33,-101.5 262.33,-98 262.33,-105"/>
</g>
<!-- 4374027568 -->
<g id="node6" class="node">
<title>4374027568</title>
<polygon fill="none" stroke="black" points="548.62,-55.5 548.62,-91.5 691.12,-91.5 691.12,-55.5 548.62,-55.5"/>
<text text-anchor="middle" x="560" y="-68.7" font-family="Times,serif" font-size="14.00">d</text>
<polyline fill="none" stroke="black" points="571.38,-56 571.38,-91.5"/>
<text text-anchor="middle" x="611.25" y="-68.7" font-family="Times,serif" font-size="14.00">data 4.0000</text>
<polyline fill="none" stroke="black" points="651.12,-56 651.12,-91.5"/>
<text text-anchor="middle" x="671.12" y="-68.7" font-family="Times,serif" font-size="14.00">grad</text>
</g>
<!-- 4374027568&#45;&gt;4373872144* -->
<g id="edge5" class="edge">
<title>4374027568&#45;&gt;4373872144*</title>
<path fill="none" stroke="black" d="M691.47,-58.68C700.64,-56.75 709.72,-54.85 717.99,-53.11"/>
<polygon fill="black" stroke="black" points="718.55,-56.57 727.61,-51.09 717.11,-49.72 718.55,-56.57"/>
</g>
<!-- 4374027568+&#45;&gt;4374027568 -->
<g id="edge3" class="edge">
<title>4374027568+&#45;&gt;4374027568</title>
<path fill="none" stroke="black" d="M511.85,-73.5C519.32,-73.5 527.88,-73.5 536.82,-73.5"/>
<polygon fill="black" stroke="black" points="536.8,-77 546.8,-73.5 536.8,-70 536.8,-77"/>
</g>
<!-- 4371720016 -->
<g id="node8" class="node">
<title>4371720016</title>
<polygon fill="none" stroke="black" points="2.62,-56.5 2.62,-92.5 144.38,-92.5 144.38,-56.5 2.62,-56.5"/>
<text text-anchor="middle" x="13.62" y="-69.7" font-family="Times,serif" font-size="14.00">a</text>
<polyline fill="none" stroke="black" points="24.62,-57 24.62,-92.5"/>
<text text-anchor="middle" x="64.5" y="-69.7" font-family="Times,serif" font-size="14.00">data 2.0000</text>
<polyline fill="none" stroke="black" points="104.38,-57 104.38,-92.5"/>
<text text-anchor="middle" x="124.38" y="-69.7" font-family="Times,serif" font-size="14.00">grad</text>
</g>
<!-- 4371720016&#45;&gt;4371990720* -->
<g id="edge9" class="edge">
<title>4371720016&#45;&gt;4371990720*</title>
<path fill="none" stroke="black" d="M144.51,-88.55C154.16,-90.49 163.74,-92.41 172.45,-94.16"/>
<polygon fill="black" stroke="black" points="171.72,-97.59 182.22,-96.12 173.1,-90.72 171.72,-97.59"/>
</g>
<!-- 4374026672 -->
<g id="node9" class="node">
<title>4374026672</title>
<polygon fill="none" stroke="black" points="547.5,-0.5 547.5,-36.5 692.25,-36.5 692.25,-0.5 547.5,-0.5"/>
<text text-anchor="middle" x="557.75" y="-13.7" font-family="Times,serif" font-size="14.00">f</text>
<polyline fill="none" stroke="black" points="568,-1 568,-36.5"/>
<text text-anchor="middle" x="610.12" y="-13.7" font-family="Times,serif" font-size="14.00">data &#45;2.0000</text>
<polyline fill="none" stroke="black" points="652.25,-1 652.25,-36.5"/>
<text text-anchor="middle" x="672.25" y="-13.7" font-family="Times,serif" font-size="14.00">grad</text>
</g>
<!-- 4374026672&#45;&gt;4373872144* -->
<g id="edge4" class="edge">
<title>4374026672&#45;&gt;4373872144*</title>
<path fill="none" stroke="black" d="M692.64,-33.03C701.42,-34.81 710.08,-36.56 718.02,-38.17"/>
<polygon fill="black" stroke="black" points="717.06,-41.54 727.56,-40.1 718.45,-34.68 717.06,-41.54"/>
</g>
<!-- 4371990480 -->
<g id="node10" class="node">
<title>4371990480</title>
<polygon fill="none" stroke="black" points="273,-28.5 273,-64.5 421.5,-64.5 421.5,-28.5 273,-28.5"/>
<text text-anchor="middle" x="284" y="-41.7" font-family="Times,serif" font-size="14.00">c</text>
<polyline fill="none" stroke="black" points="295,-29 295,-64.5"/>
<text text-anchor="middle" x="338.25" y="-41.7" font-family="Times,serif" font-size="14.00">data 10.0000</text>
<polyline fill="none" stroke="black" points="381.5,-29 381.5,-64.5"/>
<text text-anchor="middle" x="401.5" y="-41.7" font-family="Times,serif" font-size="14.00">grad</text>
</g>
<!-- 4371990480&#45;&gt;4374027568+ -->
<g id="edge8" class="edge">
<title>4371990480&#45;&gt;4374027568+</title>
<path fill="none" stroke="black" d="M421.81,-61.19C430.64,-62.95 439.33,-64.68 447.27,-66.27"/>
<polygon fill="black" stroke="black" points="446.33,-69.65 456.83,-68.18 447.71,-62.79 446.33,-69.65"/>
</g>
</g>
</svg>
