<?xml version="1.0" encoding="UTF-8" standalone="no"?>
<!DOCTYPE svg PUBLIC "-//W3C//DTD SVG 1.1//EN"
 "http://www.w3.org/Graphics/SVG/1.1/DTD/svg11.dtd">
<!-- Generated by graphviz version 12.1.2 (20240928.0832)
 -->
<!-- Pages: 1 -->
<svg width="1232pt" height="156pt"
 viewBox="0.00 0.00 1232.00 156.00" xmlns="http://www.w3.org/2000/svg" xmlns:xlink="http://www.w3.org/1999/xlink">
<g id="graph0" class="graph" transform="scale(1 1) rotate(0) translate(4 152)">
<polygon fill="white" stroke="none" points="-4,4 -4,-152 1228,-152 1228,4 -4,4"/>
<!-- 4571998800 -->
<g id="node1" class="node">
<title>4571998800</title>
<polygon fill="none" stroke="black" points="0,-111.5 0,-147.5 213,-147.5 213,-111.5 0,-111.5"/>
<text text-anchor="middle" x="11.38" y="-124.7" font-family="Times,serif" font-size="14.00">b</text>
<polyline fill="none" stroke="black" points="22.75,-112 22.75,-147.5"/>
<text text-anchor="middle" x="64.88" y="-124.7" font-family="Times,serif" font-size="14.00">data &#45;3.0000</text>
<polyline fill="none" stroke="black" points="107,-112 107,-147.5"/>
<text text-anchor="middle" x="160" y="-124.7" font-family="Times,serif" font-size="14.00">gradient &#45;4.0000</text>
</g>
<!-- 4572269216* -->
<g id="node3" class="node">
<title>4572269216*</title>
<ellipse fill="none" stroke="black" cx="276" cy="-101.5" rx="27" ry="18"/>
<text text-anchor="middle" x="276" y="-96.45" font-family="Times,serif" font-size="14.00">*</text>
</g>
<!-- 4571998800&#45;&gt;4572269216* -->
<g id="edge8" class="edge">
<title>4571998800&#45;&gt;4572269216*</title>
<path fill="none" stroke="black" d="M213.11,-111.85C222.04,-110.35 230.62,-108.92 238.4,-107.62"/>
<polygon fill="black" stroke="black" points="238.74,-111.11 248.03,-106.01 237.59,-104.21 238.74,-111.11"/>
</g>
<!-- 4572269216 -->
<g id="node2" class="node">
<title>4572269216</title>
<polygon fill="none" stroke="black" points="340.12,-83.5 340.12,-119.5 552.38,-119.5 552.38,-83.5 340.12,-83.5"/>
<text text-anchor="middle" x="351.12" y="-96.7" font-family="Times,serif" font-size="14.00">e</text>
<polyline fill="none" stroke="black" points="362.12,-84 362.12,-119.5"/>
<text text-anchor="middle" x="404.25" y="-96.7" font-family="Times,serif" font-size="14.00">data &#45;6.0000</text>
<polyline fill="none" stroke="black" points="446.38,-84 446.38,-119.5"/>
<text text-anchor="middle" x="499.38" y="-96.7" font-family="Times,serif" font-size="14.00">gradient &#45;2.0000</text>
</g>
<!-- 4574322640+ -->
<g id="node10" class="node">
<title>4574322640+</title>
<ellipse fill="none" stroke="black" cx="616.5" cy="-73.5" rx="27" ry="18"/>
<text text-anchor="middle" x="616.5" y="-68.45" font-family="Times,serif" font-size="14.00">+</text>
</g>
<!-- 4572269216&#45;&gt;4574322640+ -->
<g id="edge4" class="edge">
<title>4572269216&#45;&gt;4574322640+</title>
<path fill="none" stroke="black" d="M552.85,-83.93C561.97,-82.41 570.73,-80.95 578.66,-79.63"/>
<polygon fill="black" stroke="black" points="579.21,-83.09 588.5,-77.99 578.06,-76.18 579.21,-83.09"/>
</g>
<!-- 4572269216*&#45;&gt;4572269216 -->
<g id="edge1" class="edge">
<title>4572269216*&#45;&gt;4572269216</title>
<path fill="none" stroke="black" d="M303.29,-101.5C310.65,-101.5 319.15,-101.5 328.27,-101.5"/>
<polygon fill="black" stroke="black" points="328.14,-105 338.14,-101.5 328.14,-98 328.14,-105"/>
</g>
<!-- 4574318832 -->
<g id="node4" class="node">
<title>4574318832</title>
<polygon fill="none" stroke="black" points="680.62,-0.5 680.62,-36.5 886.88,-36.5 886.88,-0.5 680.62,-0.5"/>
<text text-anchor="middle" x="690.88" y="-13.7" font-family="Times,serif" font-size="14.00">f</text>
<polyline fill="none" stroke="black" points="701.12,-1 701.12,-36.5"/>
<text text-anchor="middle" x="743.25" y="-13.7" font-family="Times,serif" font-size="14.00">data &#45;2.0000</text>
<polyline fill="none" stroke="black" points="785.38,-1 785.38,-36.5"/>
<text text-anchor="middle" x="836.12" y="-13.7" font-family="Times,serif" font-size="14.00">gradient 4.0000</text>
</g>
<!-- 4574138720* -->
<g id="node7" class="node">
<title>4574138720*</title>
<ellipse fill="none" stroke="black" cx="951" cy="-45.5" rx="27" ry="18"/>
<text text-anchor="middle" x="951" y="-40.45" font-family="Times,serif" font-size="14.00">*</text>
</g>
<!-- 4574318832&#45;&gt;4574138720* -->
<g id="edge9" class="edge">
<title>4574318832&#45;&gt;4574138720*</title>
<path fill="none" stroke="black" d="M887.05,-35.22C896.28,-36.72 905.16,-38.17 913.2,-39.49"/>
<polygon fill="black" stroke="black" points="912.38,-42.9 922.81,-41.06 913.51,-35.99 912.38,-42.9"/>
</g>
<!-- 4571998544 -->
<g id="node5" class="node">
<title>4571998544</title>
<polygon fill="none" stroke="black" points="4.88,-56.5 4.88,-92.5 208.12,-92.5 208.12,-56.5 4.88,-56.5"/>
<text text-anchor="middle" x="15.88" y="-69.7" font-family="Times,serif" font-size="14.00">a</text>
<polyline fill="none" stroke="black" points="26.88,-57 26.88,-92.5"/>
<text text-anchor="middle" x="66.75" y="-69.7" font-family="Times,serif" font-size="14.00">data 2.0000</text>
<polyline fill="none" stroke="black" points="106.62,-57 106.62,-92.5"/>
<text text-anchor="middle" x="157.38" y="-69.7" font-family="Times,serif" font-size="14.00">gradient 6.0000</text>
</g>
<!-- 4571998544&#45;&gt;4572269216* -->
<g id="edge6" class="edge">
<title>4571998544&#45;&gt;4572269216*</title>
<path fill="none" stroke="black" d="M208.32,-90.75C218.82,-92.44 228.95,-94.08 238,-95.54"/>
<polygon fill="black" stroke="black" points="237.31,-98.97 247.74,-97.11 238.42,-92.06 237.31,-98.97"/>
</g>
<!-- 4574138720 -->
<g id="node6" class="node">
<title>4574138720</title>
<polygon fill="none" stroke="black" points="1014,-27.5 1014,-63.5 1224,-63.5 1224,-27.5 1014,-27.5"/>
<text text-anchor="middle" x="1026.12" y="-40.7" font-family="Times,serif" font-size="14.00">L</text>
<polyline fill="none" stroke="black" points="1038.25,-28 1038.25,-63.5"/>
<text text-anchor="middle" x="1080.38" y="-40.7" font-family="Times,serif" font-size="14.00">data &#45;8.0000</text>
<polyline fill="none" stroke="black" points="1122.5,-28 1122.5,-63.5"/>
<text text-anchor="middle" x="1173.25" y="-40.7" font-family="Times,serif" font-size="14.00">gradient 1.0000</text>
</g>
<!-- 4574138720*&#45;&gt;4574138720 -->
<g id="edge2" class="edge">
<title>4574138720*&#45;&gt;4574138720</title>
<path fill="none" stroke="black" d="M978.3,-45.5C985.44,-45.5 993.64,-45.5 1002.43,-45.5"/>
<polygon fill="black" stroke="black" points="1002.31,-49 1012.31,-45.5 1002.31,-42 1002.31,-49"/>
</g>
<!-- 4572268976 -->
<g id="node8" class="node">
<title>4572268976</title>
<polygon fill="none" stroke="black" points="339,-28.5 339,-64.5 553.5,-64.5 553.5,-28.5 339,-28.5"/>
<text text-anchor="middle" x="350" y="-41.7" font-family="Times,serif" font-size="14.00">c</text>
<polyline fill="none" stroke="black" points="361,-29 361,-64.5"/>
<text text-anchor="middle" x="404.25" y="-41.7" font-family="Times,serif" font-size="14.00">data 10.0000</text>
<polyline fill="none" stroke="black" points="447.5,-29 447.5,-64.5"/>
<text text-anchor="middle" x="500.5" y="-41.7" font-family="Times,serif" font-size="14.00">gradient &#45;2.0000</text>
</g>
<!-- 4572268976&#45;&gt;4574322640+ -->
<g id="edge5" class="edge">
<title>4572268976&#45;&gt;4574322640+</title>
<path fill="none" stroke="black" d="M553.81,-63.6C562.54,-65 570.92,-66.35 578.54,-67.57"/>
<polygon fill="black" stroke="black" points="577.9,-71.01 588.33,-69.14 579.01,-64.1 577.9,-71.01"/>
</g>
<!-- 4574322640 -->
<g id="node9" class="node">
<title>4574322640</title>
<polygon fill="none" stroke="black" points="679.5,-55.5 679.5,-91.5 888,-91.5 888,-55.5 679.5,-55.5"/>
<text text-anchor="middle" x="690.88" y="-68.7" font-family="Times,serif" font-size="14.00">d</text>
<polyline fill="none" stroke="black" points="702.25,-56 702.25,-91.5"/>
<text text-anchor="middle" x="742.12" y="-68.7" font-family="Times,serif" font-size="14.00">data 4.0000</text>
<polyline fill="none" stroke="black" points="782,-56 782,-91.5"/>
<text text-anchor="middle" x="835" y="-68.7" font-family="Times,serif" font-size="14.00">gradient &#45;2.0000</text>
</g>
<!-- 4574322640&#45;&gt;4574138720* -->
<g id="edge7" class="edge">
<title>4574322640&#45;&gt;4574138720*</title>
<path fill="none" stroke="black" d="M888.47,-55.93C897.15,-54.46 905.5,-53.04 913.09,-51.75"/>
<polygon fill="black" stroke="black" points="913.58,-55.22 922.86,-50.1 912.41,-48.32 913.58,-55.22"/>
</g>
<!-- 4574322640+&#45;&gt;4574322640 -->
<g id="edge3" class="edge">
<title>4574322640+&#45;&gt;4574322640</title>
<path fill="none" stroke="black" d="M643.68,-73.5C650.79,-73.5 658.96,-73.5 667.7,-73.5"/>
<polygon fill="black" stroke="black" points="667.54,-77 677.54,-73.5 667.54,-70 667.54,-77"/>
</g>
</g>
</svg>
