<?xml version="1.0" encoding="UTF-8" standalone="no"?>
<!DOCTYPE svg PUBLIC "-//W3C//DTD SVG 1.1//EN"
 "http://www.w3.org/Graphics/SVG/1.1/DTD/svg11.dtd">
<!-- Generated by graphviz version 12.1.2 (20240928.0832)
 -->
<!-- Pages: 1 -->
<svg width="1228pt" height="156pt"
 viewBox="0.00 0.00 1227.50 156.00" xmlns="http://www.w3.org/2000/svg" xmlns:xlink="http://www.w3.org/1999/xlink">
<g id="graph0" class="graph" transform="scale(1 1) rotate(0) translate(4 152)">
<polygon fill="white" stroke="none" points="-4,4 -4,-152 1223.5,-152 1223.5,4 -4,4"/>
<!-- 4568852048 -->
<g id="node1" class="node">
<title>4568852048</title>
<polygon fill="none" stroke="black" points="0,-111.5 0,-147.5 208.5,-147.5 208.5,-111.5 0,-111.5"/>
<text text-anchor="middle" x="11.38" y="-124.7" font-family="Times,serif" font-size="14.00">b</text>
<polyline fill="none" stroke="black" points="22.75,-112 22.75,-147.5"/>
<text text-anchor="middle" x="64.88" y="-124.7" font-family="Times,serif" font-size="14.00">data &#45;3.0000</text>
<polyline fill="none" stroke="black" points="107,-112 107,-147.5"/>
<text text-anchor="middle" x="157.75" y="-124.7" font-family="Times,serif" font-size="14.00">gradient 0.0000</text>
</g>
<!-- 4569122768* -->
<g id="node9" class="node">
<title>4569122768*</title>
<ellipse fill="none" stroke="black" cx="271.5" cy="-101.5" rx="27" ry="18"/>
<text text-anchor="middle" x="271.5" y="-96.45" font-family="Times,serif" font-size="14.00">*</text>
</g>
<!-- 4568852048&#45;&gt;4569122768* -->
<g id="edge6" class="edge">
<title>4568852048&#45;&gt;4569122768*</title>
<path fill="none" stroke="black" d="M208.97,-111.93C217.65,-110.46 226,-109.04 233.59,-107.75"/>
<polygon fill="black" stroke="black" points="234.08,-111.22 243.36,-106.1 232.91,-104.32 234.08,-111.22"/>
</g>
<!-- 4572052176 -->
<g id="node2" class="node">
<title>4572052176</title>
<polygon fill="none" stroke="black" points="1009.5,-27.5 1009.5,-63.5 1219.5,-63.5 1219.5,-27.5 1009.5,-27.5"/>
<text text-anchor="middle" x="1021.62" y="-40.7" font-family="Times,serif" font-size="14.00">L</text>
<polyline fill="none" stroke="black" points="1033.75,-28 1033.75,-63.5"/>
<text text-anchor="middle" x="1075.88" y="-40.7" font-family="Times,serif" font-size="14.00">data &#45;8.0000</text>
<polyline fill="none" stroke="black" points="1118,-28 1118,-63.5"/>
<text text-anchor="middle" x="1168.75" y="-40.7" font-family="Times,serif" font-size="14.00">gradient 1.0000</text>
</g>
<!-- 4572052176* -->
<g id="node3" class="node">
<title>4572052176*</title>
<ellipse fill="none" stroke="black" cx="946.5" cy="-45.5" rx="27" ry="18"/>
<text text-anchor="middle" x="946.5" y="-40.45" font-family="Times,serif" font-size="14.00">*</text>
</g>
<!-- 4572052176*&#45;&gt;4572052176 -->
<g id="edge1" class="edge">
<title>4572052176*&#45;&gt;4572052176</title>
<path fill="none" stroke="black" d="M973.8,-45.5C980.94,-45.5 989.14,-45.5 997.93,-45.5"/>
<polygon fill="black" stroke="black" points="997.81,-49 1007.81,-45.5 997.81,-42 997.81,-49"/>
</g>
<!-- 4572208432 -->
<g id="node4" class="node">
<title>4572208432</title>
<polygon fill="none" stroke="black" points="675,-55.5 675,-91.5 883.5,-91.5 883.5,-55.5 675,-55.5"/>
<text text-anchor="middle" x="686.38" y="-68.7" font-family="Times,serif" font-size="14.00">d</text>
<polyline fill="none" stroke="black" points="697.75,-56 697.75,-91.5"/>
<text text-anchor="middle" x="737.62" y="-68.7" font-family="Times,serif" font-size="14.00">data 4.0000</text>
<polyline fill="none" stroke="black" points="777.5,-56 777.5,-91.5"/>
<text text-anchor="middle" x="830.5" y="-68.7" font-family="Times,serif" font-size="14.00">gradient &#45;2.0000</text>
</g>
<!-- 4572208432&#45;&gt;4572052176* -->
<g id="edge9" class="edge">
<title>4572208432&#45;&gt;4572052176*</title>
<path fill="none" stroke="black" d="M883.97,-55.93C892.65,-54.46 901,-53.04 908.59,-51.75"/>
<polygon fill="black" stroke="black" points="909.08,-55.22 918.36,-50.1 907.91,-48.32 909.08,-55.22"/>
</g>
<!-- 4572208432+ -->
<g id="node5" class="node">
<title>4572208432+</title>
<ellipse fill="none" stroke="black" cx="612" cy="-73.5" rx="27" ry="18"/>
<text text-anchor="middle" x="612" y="-68.45" font-family="Times,serif" font-size="14.00">+</text>
</g>
<!-- 4572208432+&#45;&gt;4572208432 -->
<g id="edge2" class="edge">
<title>4572208432+&#45;&gt;4572208432</title>
<path fill="none" stroke="black" d="M639.18,-73.5C646.29,-73.5 654.46,-73.5 663.2,-73.5"/>
<polygon fill="black" stroke="black" points="663.04,-77 673.04,-73.5 663.04,-70 663.04,-77"/>
</g>
<!-- 4568851280 -->
<g id="node6" class="node">
<title>4568851280</title>
<polygon fill="none" stroke="black" points="2.62,-56.5 2.62,-92.5 205.88,-92.5 205.88,-56.5 2.62,-56.5"/>
<text text-anchor="middle" x="13.62" y="-69.7" font-family="Times,serif" font-size="14.00">a</text>
<polyline fill="none" stroke="black" points="24.62,-57 24.62,-92.5"/>
<text text-anchor="middle" x="64.5" y="-69.7" font-family="Times,serif" font-size="14.00">data 2.0000</text>
<polyline fill="none" stroke="black" points="104.38,-57 104.38,-92.5"/>
<text text-anchor="middle" x="155.12" y="-69.7" font-family="Times,serif" font-size="14.00">gradient 0.0000</text>
</g>
<!-- 4568851280&#45;&gt;4569122768* -->
<g id="edge8" class="edge">
<title>4568851280&#45;&gt;4569122768*</title>
<path fill="none" stroke="black" d="M206.14,-90.98C215.82,-92.57 225.15,-94.09 233.56,-95.46"/>
<polygon fill="black" stroke="black" points="232.85,-98.89 243.28,-97.05 233.98,-91.99 232.85,-98.89"/>
</g>
<!-- 4572207536 -->
<g id="node7" class="node">
<title>4572207536</title>
<polygon fill="none" stroke="black" points="676.12,-0.5 676.12,-36.5 882.38,-36.5 882.38,-0.5 676.12,-0.5"/>
<text text-anchor="middle" x="686.38" y="-13.7" font-family="Times,serif" font-size="14.00">f</text>
<polyline fill="none" stroke="black" points="696.62,-1 696.62,-36.5"/>
<text text-anchor="middle" x="738.75" y="-13.7" font-family="Times,serif" font-size="14.00">data &#45;2.0000</text>
<polyline fill="none" stroke="black" points="780.88,-1 780.88,-36.5"/>
<text text-anchor="middle" x="831.62" y="-13.7" font-family="Times,serif" font-size="14.00">gradient 4.0000</text>
</g>
<!-- 4572207536&#45;&gt;4572052176* -->
<g id="edge5" class="edge">
<title>4572207536&#45;&gt;4572052176*</title>
<path fill="none" stroke="black" d="M882.55,-35.22C891.78,-36.72 900.66,-38.17 908.7,-39.49"/>
<polygon fill="black" stroke="black" points="907.88,-42.9 918.31,-41.06 909.01,-35.99 907.88,-42.9"/>
</g>
<!-- 4569122768 -->
<g id="node8" class="node">
<title>4569122768</title>
<polygon fill="none" stroke="black" points="335.62,-83.5 335.62,-119.5 547.88,-119.5 547.88,-83.5 335.62,-83.5"/>
<text text-anchor="middle" x="346.62" y="-96.7" font-family="Times,serif" font-size="14.00">e</text>
<polyline fill="none" stroke="black" points="357.62,-84 357.62,-119.5"/>
<text text-anchor="middle" x="399.75" y="-96.7" font-family="Times,serif" font-size="14.00">data &#45;6.0000</text>
<polyline fill="none" stroke="black" points="441.88,-84 441.88,-119.5"/>
<text text-anchor="middle" x="494.88" y="-96.7" font-family="Times,serif" font-size="14.00">gradient &#45;2.0000</text>
</g>
<!-- 4569122768&#45;&gt;4572208432+ -->
<g id="edge7" class="edge">
<title>4569122768&#45;&gt;4572208432+</title>
<path fill="none" stroke="black" d="M548.35,-83.93C557.47,-82.41 566.23,-80.95 574.16,-79.63"/>
<polygon fill="black" stroke="black" points="574.71,-83.09 584,-77.99 573.56,-76.18 574.71,-83.09"/>
</g>
<!-- 4569122768*&#45;&gt;4569122768 -->
<g id="edge3" class="edge">
<title>4569122768*&#45;&gt;4569122768</title>
<path fill="none" stroke="black" d="M298.79,-101.5C306.15,-101.5 314.65,-101.5 323.77,-101.5"/>
<polygon fill="black" stroke="black" points="323.64,-105 333.64,-101.5 323.64,-98 323.64,-105"/>
</g>
<!-- 4569122288 -->
<g id="node10" class="node">
<title>4569122288</title>
<polygon fill="none" stroke="black" points="334.5,-28.5 334.5,-64.5 549,-64.5 549,-28.5 334.5,-28.5"/>
<text text-anchor="middle" x="345.5" y="-41.7" font-family="Times,serif" font-size="14.00">c</text>
<polyline fill="none" stroke="black" points="356.5,-29 356.5,-64.5"/>
<text text-anchor="middle" x="399.75" y="-41.7" font-family="Times,serif" font-size="14.00">data 10.0000</text>
<polyline fill="none" stroke="black" points="443,-29 443,-64.5"/>
<text text-anchor="middle" x="496" y="-41.7" font-family="Times,serif" font-size="14.00">gradient &#45;2.0000</text>
</g>
<!-- 4569122288&#45;&gt;4572208432+ -->
<g id="edge4" class="edge">
<title>4569122288&#45;&gt;4572208432+</title>
<path fill="none" stroke="black" d="M549.31,-63.6C558.04,-65 566.42,-66.35 574.04,-67.57"/>
<polygon fill="black" stroke="black" points="573.4,-71.01 583.83,-69.14 574.51,-64.1 573.4,-71.01"/>
</g>
</g>
</svg>
