<?xml version="1.0" encoding="UTF-8" standalone="no"?>
<!DOCTYPE svg PUBLIC "-//W3C//DTD SVG 1.1//EN"
 "http://www.w3.org/Graphics/SVG/1.1/DTD/svg11.dtd">
<!-- Generated by graphviz version 12.1.2 (20240928.0832)
 -->
<!-- Pages: 1 -->
<svg width="1223pt" height="156pt"
 viewBox="0.00 0.00 1223.00 156.00" xmlns="http://www.w3.org/2000/svg" xmlns:xlink="http://www.w3.org/1999/xlink">
<g id="graph0" class="graph" transform="scale(1 1) rotate(0) translate(4 152)">
<polygon fill="white" stroke="none" points="-4,4 -4,-152 1219,-152 1219,4 -4,4"/>
<!-- 4568852048 -->
<g id="node1" class="node">
<title>4568852048</title>
<polygon fill="none" stroke="black" points="0,-111.5 0,-147.5 208.5,-147.5 208.5,-111.5 0,-111.5"/>
<text text-anchor="middle" x="11.38" y="-124.7" font-family="Times,serif" font-size="14.00">b</text>
<polyline fill="none" stroke="black" points="22.75,-112 22.75,-147.5"/>
<text text-anchor="middle" x="64.88" y="-124.7" font-family="Times,serif" font-size="14.00">data &#45;3.0000</text>
<polyline fill="none" stroke="black" points="107,-112 107,-147.5"/>
<text text-anchor="middle" x="157.75" y="-124.7" font-family="Times,serif" font-size="14.00">gradient 0.0000</text>
</g>
<!-- 4569122768* -->
<g id="node9" class="node">
<title>4569122768*</title>
<ellipse fill="none" stroke="black" cx="271.5" cy="-101.5" rx="27" ry="18"/>
<text text-anchor="middle" x="271.5" y="-96.45" font-family="Times,serif" font-size="14.00">*</text>
</g>
<!-- 4568852048&#45;&gt;4569122768* -->
<g id="edge6" class="edge">
<title>4568852048&#45;&gt;4569122768*</title>
<path fill="none" stroke="black" d="M208.97,-111.93C217.65,-110.46 226,-109.04 233.59,-107.75"/>
<polygon fill="black" stroke="black" points="234.08,-111.22 243.36,-106.1 232.91,-104.32 234.08,-111.22"/>
</g>
<!-- 4572052176 -->
<g id="node2" class="node">
<title>4572052176</title>
<polygon fill="none" stroke="black" points="1005,-27.5 1005,-63.5 1215,-63.5 1215,-27.5 1005,-27.5"/>
<text text-anchor="middle" x="1017.12" y="-40.7" font-family="Times,serif" font-size="14.00">L</text>
<polyline fill="none" stroke="black" points="1029.25,-28 1029.25,-63.5"/>
<text text-anchor="middle" x="1071.38" y="-40.7" font-family="Times,serif" font-size="14.00">data &#45;8.0000</text>
<polyline fill="none" stroke="black" points="1113.5,-28 1113.5,-63.5"/>
<text text-anchor="middle" x="1164.25" y="-40.7" font-family="Times,serif" font-size="14.00">gradient 1.0000</text>
</g>
<!-- 4572052176* -->
<g id="node3" class="node">
<title>4572052176*</title>
<ellipse fill="none" stroke="black" cx="942" cy="-45.5" rx="27" ry="18"/>
<text text-anchor="middle" x="942" y="-40.45" font-family="Times,serif" font-size="14.00">*</text>
</g>
<!-- 4572052176*&#45;&gt;4572052176 -->
<g id="edge1" class="edge">
<title>4572052176*&#45;&gt;4572052176</title>
<path fill="none" stroke="black" d="M969.3,-45.5C976.44,-45.5 984.64,-45.5 993.43,-45.5"/>
<polygon fill="black" stroke="black" points="993.31,-49 1003.31,-45.5 993.31,-42 993.31,-49"/>
</g>
<!-- 4572208432 -->
<g id="node4" class="node">
<title>4572208432</title>
<polygon fill="none" stroke="black" points="670.5,-55.5 670.5,-91.5 879,-91.5 879,-55.5 670.5,-55.5"/>
<text text-anchor="middle" x="681.88" y="-68.7" font-family="Times,serif" font-size="14.00">d</text>
<polyline fill="none" stroke="black" points="693.25,-56 693.25,-91.5"/>
<text text-anchor="middle" x="733.12" y="-68.7" font-family="Times,serif" font-size="14.00">data 4.0000</text>
<polyline fill="none" stroke="black" points="773,-56 773,-91.5"/>
<text text-anchor="middle" x="826" y="-68.7" font-family="Times,serif" font-size="14.00">gradient &#45;2.0000</text>
</g>
<!-- 4572208432&#45;&gt;4572052176* -->
<g id="edge9" class="edge">
<title>4572208432&#45;&gt;4572052176*</title>
<path fill="none" stroke="black" d="M879.47,-55.93C888.15,-54.46 896.5,-53.04 904.09,-51.75"/>
<polygon fill="black" stroke="black" points="904.58,-55.22 913.86,-50.1 903.41,-48.32 904.58,-55.22"/>
</g>
<!-- 4572208432+ -->
<g id="node5" class="node">
<title>4572208432+</title>
<ellipse fill="none" stroke="black" cx="607.5" cy="-73.5" rx="27" ry="18"/>
<text text-anchor="middle" x="607.5" y="-68.45" font-family="Times,serif" font-size="14.00">+</text>
</g>
<!-- 4572208432+&#45;&gt;4572208432 -->
<g id="edge2" class="edge">
<title>4572208432+&#45;&gt;4572208432</title>
<path fill="none" stroke="black" d="M634.68,-73.5C641.79,-73.5 649.96,-73.5 658.7,-73.5"/>
<polygon fill="black" stroke="black" points="658.54,-77 668.54,-73.5 658.54,-70 658.54,-77"/>
</g>
<!-- 4568851280 -->
<g id="node6" class="node">
<title>4568851280</title>
<polygon fill="none" stroke="black" points="2.62,-56.5 2.62,-92.5 205.88,-92.5 205.88,-56.5 2.62,-56.5"/>
<text text-anchor="middle" x="13.62" y="-69.7" font-family="Times,serif" font-size="14.00">a</text>
<polyline fill="none" stroke="black" points="24.62,-57 24.62,-92.5"/>
<text text-anchor="middle" x="64.5" y="-69.7" font-family="Times,serif" font-size="14.00">data 2.0000</text>
<polyline fill="none" stroke="black" points="104.38,-57 104.38,-92.5"/>
<text text-anchor="middle" x="155.12" y="-69.7" font-family="Times,serif" font-size="14.00">gradient 0.0000</text>
</g>
<!-- 4568851280&#45;&gt;4569122768* -->
<g id="edge8" class="edge">
<title>4568851280&#45;&gt;4569122768*</title>
<path fill="none" stroke="black" d="M206.14,-90.98C215.82,-92.57 225.15,-94.09 233.56,-95.46"/>
<polygon fill="black" stroke="black" points="232.85,-98.89 243.28,-97.05 233.98,-91.99 232.85,-98.89"/>
</g>
<!-- 4572207536 -->
<g id="node7" class="node">
<title>4572207536</title>
<polygon fill="none" stroke="black" points="671.62,-0.5 671.62,-36.5 877.88,-36.5 877.88,-0.5 671.62,-0.5"/>
<text text-anchor="middle" x="681.88" y="-13.7" font-family="Times,serif" font-size="14.00">f</text>
<polyline fill="none" stroke="black" points="692.12,-1 692.12,-36.5"/>
<text text-anchor="middle" x="734.25" y="-13.7" font-family="Times,serif" font-size="14.00">data &#45;2.0000</text>
<polyline fill="none" stroke="black" points="776.38,-1 776.38,-36.5"/>
<text text-anchor="middle" x="827.12" y="-13.7" font-family="Times,serif" font-size="14.00">gradient 4.0000</text>
</g>
<!-- 4572207536&#45;&gt;4572052176* -->
<g id="edge5" class="edge">
<title>4572207536&#45;&gt;4572052176*</title>
<path fill="none" stroke="black" d="M878.05,-35.22C887.28,-36.72 896.16,-38.17 904.2,-39.49"/>
<polygon fill="black" stroke="black" points="903.38,-42.9 913.81,-41.06 904.51,-35.99 903.38,-42.9"/>
</g>
<!-- 4569122768 -->
<g id="node8" class="node">
<title>4569122768</title>
<polygon fill="none" stroke="black" points="335.62,-83.5 335.62,-119.5 543.38,-119.5 543.38,-83.5 335.62,-83.5"/>
<text text-anchor="middle" x="346.62" y="-96.7" font-family="Times,serif" font-size="14.00">e</text>
<polyline fill="none" stroke="black" points="357.62,-84 357.62,-119.5"/>
<text text-anchor="middle" x="399.75" y="-96.7" font-family="Times,serif" font-size="14.00">data &#45;6.0000</text>
<polyline fill="none" stroke="black" points="441.88,-84 441.88,-119.5"/>
<text text-anchor="middle" x="492.62" y="-96.7" font-family="Times,serif" font-size="14.00">gradient 0.0000</text>
</g>
<!-- 4569122768&#45;&gt;4572208432+ -->
<g id="edge7" class="edge">
<title>4569122768&#45;&gt;4572208432+</title>
<path fill="none" stroke="black" d="M543.74,-84.09C552.96,-82.53 561.82,-81.04 569.83,-79.69"/>
<polygon fill="black" stroke="black" points="570.13,-83.18 579.41,-78.07 568.97,-76.28 570.13,-83.18"/>
</g>
<!-- 4569122768*&#45;&gt;4569122768 -->
<g id="edge3" class="edge">
<title>4569122768*&#45;&gt;4569122768</title>
<path fill="none" stroke="black" d="M298.8,-101.5C306.21,-101.5 314.78,-101.5 323.94,-101.5"/>
<polygon fill="black" stroke="black" points="323.88,-105 333.88,-101.5 323.88,-98 323.88,-105"/>
</g>
<!-- 4569122288 -->
<g id="node10" class="node">
<title>4569122288</title>
<polygon fill="none" stroke="black" points="334.5,-28.5 334.5,-64.5 544.5,-64.5 544.5,-28.5 334.5,-28.5"/>
<text text-anchor="middle" x="345.5" y="-41.7" font-family="Times,serif" font-size="14.00">c</text>
<polyline fill="none" stroke="black" points="356.5,-29 356.5,-64.5"/>
<text text-anchor="middle" x="399.75" y="-41.7" font-family="Times,serif" font-size="14.00">data 10.0000</text>
<polyline fill="none" stroke="black" points="443,-29 443,-64.5"/>
<text text-anchor="middle" x="493.75" y="-41.7" font-family="Times,serif" font-size="14.00">gradient 0.0000</text>
</g>
<!-- 4569122288&#45;&gt;4572208432+ -->
<g id="edge4" class="edge">
<title>4569122288&#45;&gt;4572208432+</title>
<path fill="none" stroke="black" d="M544.69,-63.45C553.41,-64.86 561.79,-66.23 569.43,-67.47"/>
<polygon fill="black" stroke="black" points="568.81,-70.92 579.24,-69.07 569.93,-64.01 568.81,-70.92"/>
</g>
</g>
</svg>
