<?xml version="1.0" encoding="UTF-8" standalone="no"?>
<!DOCTYPE svg PUBLIC "-//W3C//DTD SVG 1.1//EN"
 "http://www.w3.org/Graphics/SVG/1.1/DTD/svg11.dtd">
<!-- Generated by graphviz version 12.1.2 (20240928.0832)
 -->
<!-- Pages: 1 -->
<svg width="1223pt" height="156pt"
 viewBox="0.00 0.00 1223.00 156.00" xmlns="http://www.w3.org/2000/svg" xmlns:xlink="http://www.w3.org/1999/xlink">
<g id="graph0" class="graph" transform="scale(1 1) rotate(0) translate(4 152)">
<polygon fill="white" stroke="none" points="-4,4 -4,-152 1219,-152 1219,4 -4,4"/>
<!-- 4416060480 -->
<g id="node1" class="node">
<title>4416060480</title>
<polygon fill="none" stroke="black" points="1005,-27.5 1005,-63.5 1215,-63.5 1215,-27.5 1005,-27.5"/>
<text text-anchor="middle" x="1017.12" y="-40.7" font-family="Times,serif" font-size="14.00">L</text>
<polyline fill="none" stroke="black" points="1029.25,-28 1029.25,-63.5"/>
<text text-anchor="middle" x="1071.38" y="-40.7" font-family="Times,serif" font-size="14.00">data &#45;7.2865</text>
<polyline fill="none" stroke="black" points="1113.5,-28 1113.5,-63.5"/>
<text text-anchor="middle" x="1164.25" y="-40.7" font-family="Times,serif" font-size="14.00">gradient 0.0000</text>
</g>
<!-- 4416060480* -->
<g id="node2" class="node">
<title>4416060480*</title>
<ellipse fill="none" stroke="black" cx="942" cy="-45.5" rx="27" ry="18"/>
<text text-anchor="middle" x="942" y="-40.45" font-family="Times,serif" font-size="14.00">*</text>
</g>
<!-- 4416060480*&#45;&gt;4416060480 -->
<g id="edge1" class="edge">
<title>4416060480*&#45;&gt;4416060480</title>
<path fill="none" stroke="black" d="M969.3,-45.5C976.44,-45.5 984.64,-45.5 993.43,-45.5"/>
<polygon fill="black" stroke="black" points="993.31,-49 1003.31,-45.5 993.31,-42 993.31,-49"/>
</g>
<!-- 4414711376 -->
<g id="node3" class="node">
<title>4414711376</title>
<polygon fill="none" stroke="black" points="4.88,-111.5 4.88,-147.5 208.12,-147.5 208.12,-111.5 4.88,-111.5"/>
<text text-anchor="middle" x="15.88" y="-124.7" font-family="Times,serif" font-size="14.00">a</text>
<polyline fill="none" stroke="black" points="26.88,-112 26.88,-147.5"/>
<text text-anchor="middle" x="66.75" y="-124.7" font-family="Times,serif" font-size="14.00">data 2.0600</text>
<polyline fill="none" stroke="black" points="106.62,-112 106.62,-147.5"/>
<text text-anchor="middle" x="157.38" y="-124.7" font-family="Times,serif" font-size="14.00">gradient 6.0000</text>
</g>
<!-- 4416060032* -->
<g id="node5" class="node">
<title>4416060032*</title>
<ellipse fill="none" stroke="black" cx="276" cy="-101.5" rx="27" ry="18"/>
<text text-anchor="middle" x="276" y="-96.45" font-family="Times,serif" font-size="14.00">*</text>
</g>
<!-- 4414711376&#45;&gt;4416060032* -->
<g id="edge8" class="edge">
<title>4414711376&#45;&gt;4416060032*</title>
<path fill="none" stroke="black" d="M208.32,-112.65C218.92,-110.88 229.13,-109.17 238.25,-107.64"/>
<polygon fill="black" stroke="black" points="238.77,-111.11 248.05,-106 237.61,-104.2 238.77,-111.11"/>
</g>
<!-- 4416060032 -->
<g id="node4" class="node">
<title>4416060032</title>
<polygon fill="none" stroke="black" points="339,-83.5 339,-119.5 546.75,-119.5 546.75,-83.5 339,-83.5"/>
<text text-anchor="middle" x="350" y="-96.7" font-family="Times,serif" font-size="14.00">e</text>
<polyline fill="none" stroke="black" points="361,-84 361,-119.5"/>
<text text-anchor="middle" x="403.12" y="-96.7" font-family="Times,serif" font-size="14.00">data &#45;6.2624</text>
<polyline fill="none" stroke="black" points="445.25,-84 445.25,-119.5"/>
<text text-anchor="middle" x="496" y="-96.7" font-family="Times,serif" font-size="14.00">gradient 0.0000</text>
</g>
<!-- 4416059808+ -->
<g id="node8" class="node">
<title>4416059808+</title>
<ellipse fill="none" stroke="black" cx="609.75" cy="-73.5" rx="27" ry="18"/>
<text text-anchor="middle" x="609.75" y="-68.45" font-family="Times,serif" font-size="14.00">+</text>
</g>
<!-- 4416060032&#45;&gt;4416059808+ -->
<g id="edge7" class="edge">
<title>4416060032&#45;&gt;4416059808+</title>
<path fill="none" stroke="black" d="M546.89,-84.01C555.79,-82.49 564.35,-81.04 572.12,-79.72"/>
<polygon fill="black" stroke="black" points="572.48,-83.21 581.75,-78.09 571.3,-76.31 572.48,-83.21"/>
</g>
<!-- 4416060032*&#45;&gt;4416060032 -->
<g id="edge2" class="edge">
<title>4416060032*&#45;&gt;4416060032</title>
<path fill="none" stroke="black" d="M303.49,-101.5C310.59,-101.5 318.75,-101.5 327.47,-101.5"/>
<polygon fill="black" stroke="black" points="327.26,-105 337.26,-101.5 327.26,-98 327.26,-105"/>
</g>
<!-- 4414711632 -->
<g id="node6" class="node">
<title>4414711632</title>
<polygon fill="none" stroke="black" points="0,-56.5 0,-92.5 213,-92.5 213,-56.5 0,-56.5"/>
<text text-anchor="middle" x="11.38" y="-69.7" font-family="Times,serif" font-size="14.00">b</text>
<polyline fill="none" stroke="black" points="22.75,-57 22.75,-92.5"/>
<text text-anchor="middle" x="64.88" y="-69.7" font-family="Times,serif" font-size="14.00">data &#45;3.0400</text>
<polyline fill="none" stroke="black" points="107,-57 107,-92.5"/>
<text text-anchor="middle" x="160" y="-69.7" font-family="Times,serif" font-size="14.00">gradient &#45;4.0000</text>
</g>
<!-- 4414711632&#45;&gt;4416060032* -->
<g id="edge6" class="edge">
<title>4414711632&#45;&gt;4416060032*</title>
<path fill="none" stroke="black" d="M213.11,-91.52C221.85,-92.93 230.25,-94.29 237.9,-95.52"/>
<polygon fill="black" stroke="black" points="237.3,-98.97 247.73,-97.1 238.41,-92.06 237.3,-98.97"/>
</g>
<!-- 4416059808 -->
<g id="node7" class="node">
<title>4416059808</title>
<polygon fill="none" stroke="black" points="673.88,-55.5 673.88,-91.5 877.88,-91.5 877.88,-55.5 673.88,-55.5"/>
<text text-anchor="middle" x="685.25" y="-68.7" font-family="Times,serif" font-size="14.00">d</text>
<polyline fill="none" stroke="black" points="696.62,-56 696.62,-91.5"/>
<text text-anchor="middle" x="736.5" y="-68.7" font-family="Times,serif" font-size="14.00">data 3.7176</text>
<polyline fill="none" stroke="black" points="776.38,-56 776.38,-91.5"/>
<text text-anchor="middle" x="827.12" y="-68.7" font-family="Times,serif" font-size="14.00">gradient 0.0000</text>
</g>
<!-- 4416059808&#45;&gt;4416060480* -->
<g id="edge5" class="edge">
<title>4416059808&#45;&gt;4416060480*</title>
<path fill="none" stroke="black" d="M878.01,-56.25C887.32,-54.66 896.28,-53.13 904.38,-51.75"/>
<polygon fill="black" stroke="black" points="904.81,-55.23 914.08,-50.09 903.63,-48.32 904.81,-55.23"/>
</g>
<!-- 4416059808+&#45;&gt;4416059808 -->
<g id="edge3" class="edge">
<title>4416059808+&#45;&gt;4416059808</title>
<path fill="none" stroke="black" d="M637.12,-73.5C644.53,-73.5 653.08,-73.5 662.23,-73.5"/>
<polygon fill="black" stroke="black" points="662.13,-77 672.13,-73.5 662.13,-70 662.13,-77"/>
</g>
<!-- 4417018288 -->
<g id="node9" class="node">
<title>4417018288</title>
<polygon fill="none" stroke="black" points="672.75,-0.5 672.75,-36.5 879,-36.5 879,-0.5 672.75,-0.5"/>
<text text-anchor="middle" x="683" y="-13.7" font-family="Times,serif" font-size="14.00">f</text>
<polyline fill="none" stroke="black" points="693.25,-1 693.25,-36.5"/>
<text text-anchor="middle" x="735.38" y="-13.7" font-family="Times,serif" font-size="14.00">data &#45;1.9600</text>
<polyline fill="none" stroke="black" points="777.5,-1 777.5,-36.5"/>
<text text-anchor="middle" x="828.25" y="-13.7" font-family="Times,serif" font-size="14.00">gradient 4.0000</text>
</g>
<!-- 4417018288&#45;&gt;4416060480* -->
<g id="edge9" class="edge">
<title>4417018288&#45;&gt;4416060480*</title>
<path fill="none" stroke="black" d="M879.42,-35.37C888.09,-36.8 896.44,-38.17 904.04,-39.42"/>
<polygon fill="black" stroke="black" points="903.38,-42.86 913.81,-41.03 904.51,-35.95 903.38,-42.86"/>
</g>
<!-- 4414982096 -->
<g id="node10" class="node">
<title>4414982096</title>
<polygon fill="none" stroke="black" points="339,-28.5 339,-64.5 546.75,-64.5 546.75,-28.5 339,-28.5"/>
<text text-anchor="middle" x="350" y="-41.7" font-family="Times,serif" font-size="14.00">c</text>
<polyline fill="none" stroke="black" points="361,-29 361,-64.5"/>
<text text-anchor="middle" x="400.88" y="-41.7" font-family="Times,serif" font-size="14.00">data 9.9800</text>
<polyline fill="none" stroke="black" points="440.75,-29 440.75,-64.5"/>
<text text-anchor="middle" x="493.75" y="-41.7" font-family="Times,serif" font-size="14.00">gradient &#45;2.0000</text>
</g>
<!-- 4414982096&#45;&gt;4416059808+ -->
<g id="edge4" class="edge">
<title>4414982096&#45;&gt;4416059808+</title>
<path fill="none" stroke="black" d="M546.89,-63.37C555.79,-64.83 564.35,-66.23 572.12,-67.5"/>
<polygon fill="black" stroke="black" points="571.31,-70.92 581.75,-69.08 572.44,-64.01 571.31,-70.92"/>
</g>
</g>
</svg>
